<svg width="50" height="28" viewBox="0 0 50 28" xmlns="http://www.w3.org/2000/svg"><title>event-icon-official</title><g fill="none" fill-rule="evenodd"><path d="M0,0 L0,28 L50,28 L42.0699431,14.0004996 L50,0 L0,0" fill="#0050A0"/><path d="M13,10.4011943 L18.9994313,10.4011943 L18.9994313,5.00099524 L13,5.00099524 L13,10.4011943 Z M31.0002844,5 L25.8478199,5 L31.0002844,10.1523831 L31.0002844,5 L31.0002844,5 Z M31.0002844,23 L31.0002844,17.8496074 L25.8478199,23 L31.0002844,23 L31.0002844,23 Z M13,23 L18.9994313,23 L18.9994313,17.599801 L13,17.599801 L13,23 Z M34,14 L24.9998578,5 L24.9998578,11.001327 L13,11.001327 L13,16.9996683 L24.9998578,16.9996683 L24.9998578,23 L34,14 L34,14 Z" fill="#FFF"/></g></svg>